<?xml version="1.0" standalone="no"?>
<!DOCTYPE svg PUBLIC "-//W3C//DTD SVG 20010904//EN"
 "http://www.w3.org/TR/2001/REC-SVG-20010904/DTD/svg10.dtd">
<svg version="1.0" xmlns="http://www.w3.org/2000/svg"
 width="691.000000pt" height="691.000000pt" viewBox="0 0 691.000000 691.000000"
 preserveAspectRatio="xMidYMid meet">
<metadata>
Created by potrace 1.11, written by Peter Selinger 2001-2013
</metadata>
<g transform="translate(0.000000,691.000000) scale(0.100000,-0.100000)"
fill="#000000" stroke="none">
<path d="M1840 6061 c-69 -23 -130 -51 -150 -71 -9 -8 -29 -27 -47 -41 -34
-28 -103 -128 -122 -174 -19 -49 -23 -76 -28 -165 -3 -48 -10 -88 -17 -92 -8
-6 -8 -8 1 -8 17 0 18 -461 0 -472 -9 -6 -9 -8 0 -8 9 0 12 -153 12 -675 1
-533 -2 -674 -12 -669 -9 5 -9 4 1 -7 6 -7 12 -28 12 -46 0 -20 -5 -33 -12
-33 -10 0 -10 -2 -1 -8 9 -5 12 -294 12 -1182 1 -984 3 -1182 15 -1221 54
-176 200 -312 374 -348 38 -8 499 -11 1590 -10 1612 0 1587 0 1672 42 142 70
252 212 277 355 8 48 8 4393 0 4448 -22 149 -125 282 -277 357 l-85 42 -1580
2 c-1501 2 -1583 1 -1635 -16z m3093 -2534 c-1 -1134 -2 -2094 -3 -2134 l0
-71 -1476 1 -1476 2 0 2105 c0 1158 1 2117 1 2132 l1 28 1478 0 1477 0 -2
-2063z"/>
<path d="M3110 5273 c0 -9 -25 -12 -87 -12 -97 1 -134 -9 -175 -48 -76 -72
-53 -213 42 -260 32 -16 81 -18 563 -19 527 -2 529 -1 570 20 123 65 110 254
-20 297 -23 7 -171 11 -456 11 -309 0 -424 3 -429 11 -6 9 -8 9 -8 0z"/>
<path d="M3320 4425 c-94 -21 -141 -41 -222 -94 -118 -77 -204 -184 -258 -320
-29 -74 -35 -118 -34 -241 1 -144 37 -253 123 -380 61 -89 212 -194 336 -234
266 -85 573 26 735 264 42 62 86 161 96 219 4 20 8 45 10 56 7 32 6 147 -1
190 -15 97 -73 229 -131 301 -18 23 -31 44 -29 48 3 3 2 4 -2 1 -3 -2 -15 5
-27 18 -34 36 -147 112 -201 134 -126 52 -268 66 -395 38z"/>
<path d="M2847 2784 c-136 -26 -260 -87 -351 -172 -24 -22 -47 -38 -51 -34 -4
4 -5 3 -3 -3 1 -5 -9 -26 -24 -45 -36 -47 -83 -145 -97 -202 -6 -26 -12 -116
-12 -200 -2 -170 6 -202 62 -252 71 -64 16 -61 1079 -60 531 0 977 3 991 6 59
13 120 61 149 118 17 33 21 268 5 357 -25 144 -116 281 -246 370 -58 40 -167
93 -191 93 -12 0 -16 4 -12 12 4 6 3 8 -4 5 -5 -4 -40 -1 -77 7 -106 22 -190
18 -289 -15 -78 -26 -105 -32 -201 -44 -46 -6 -237 -6 -265 0 -14 3 -38 8 -55
10 -16 3 -52 13 -80 22 -27 10 -52 18 -55 18 -3 1 -23 6 -45 12 -52 15 -142
13 -228 -3z"/>
</g>
</svg>
